<?xml version="1.0" encoding="utf-8"?>
<?xml-stylesheet type="text/xsl" href="rss1.xsl"?>
<rss version="2.0" xmlns:atom="http://www.w3.org/2005/Atom" xmlns:content="http://purl.org/rss/1.0/modules/content/" xmlns:dc="http://purl.org/dc/elements/1.1/" xmlns:media="http://search.yahoo.com/mrss/">
<channel>
 <title>Getty</title>
 <link>http://www.gettyimg.com/</link>
 <atom:link href="http://www.gettyimg.com/" rel="self" type="application/rss+xml" />

 
                <item>
                <title><![CDATA[【MASTER &amp; MASTER RIP】Murda ft. Hadise - Sen Dönene Kadar (Master ProRes-Rip AVC 2160p) (DECE82300254)]]></title>
                <link><![CDATA[https://sharemania.us/threads/murda-ft-hadise-sen-d%C3%B6nene-kadar-master-prores-rip-avc-2160p-dece82300254.228778/]]></link>
                <description><![CDATA[<article>
<blockquote class="messageText SelectQuoteContainer ugc baseHtml">
<div style="text-align: center"><img src="https://i.imgur.com/mrKyH5S.jpg" class="bbCodeImage LbImage" alt="[​IMG]" data-url="https://i.imgur.com/mrKyH5S.jpg" style=""><br>
<br>
Encoded from: <b>MurdaHadise_SenDoneneKadar_DECE82300254 (Master ProRes 2160p).mov</b><br>
Encoded by: <b>stargamer</b> (please give credits if you share/use this MasterRip anywhere.)<br>
<br>
Metadata:<br>
<div class="ToggleTriggerAnchor bbCodeSpoilerContainer">
<button type="button" class="button bbCodeSpoilerButton ToggleTrigger Tooltip JsOnly" data-target="> .SpoilerTarget"><span>Spoiler</span></button>
<div class="SpoilerTarget bbCodeSpoilerText">General<br>
Format : MPEG-4<br>
Format profile : Base Media / Version 2<br>
Codec ID : mp42 (mp42/mp41)<br>
File size : 1.70 GiB<br>
Duration : 6 min 10 s<br>
Overall bit rate mode : Variable<br>
Overall bit rate : 39.4 Mb/s<br>
Encoded date : UTC 2023-09-19 20:18:13<br>
Tagged date : UTC 2023-09-19 20:18:35<br>
TIM : 00:00:00:00<br>
TSC : 25<br>
TSZ : 1<br>
<br>
Video<br>
ID : 1<br>
Format : AVC<br>
Format/Info : Advanced Video Codec<br>
Format profile : Main@L5.1<br>
Format settings : CABAC / 1 Ref Frames<br>
Format settings, CABAC : Yes<br>
Format settings, Reference fra : 1 frame<br>
Format settings, GOP : M=1, N=30<br>
Codec ID : avc1<br>
Codec ID/Info : Advanced Video Coding<br>
Duration : 6 min 10 s<br>
Bit rate : 39.0 Mb/s<br>
Width : 3 840 pixels<br>
Height : 2 160 pixels<br>
Display aspect ratio : 16:9<br>
Frame rate mode : Constant<br>
Frame rate : 25.000 FPS<br>
Color space : YUV<br>
Chroma subsampling : 4:2:0<br>
Bit depth : 8 bits<br>
Scan type : Progressive<br>
Bits/(Pixel*Frame) : 0.188<br>
Stream size : 1.68 GiB (99%)<br>
Language : English<br>
Encoded date : UTC 2023-09-19 20:18:13<br>
Tagged date : UTC 2023-09-19 20:18:13<br>
Codec configuration box : avcC<br>
<br>
Audio<br>
ID : 2<br>
Format : AAC LC<br>
Format/Info : Advanced Audio Codec Low Complexity<br>
Codec ID : mp4a-40-2<br>
Duration : 6 min 10 s<br>
Source duration : 6 min 10 s<br>
Bit rate mode : Variable<br>
Bit rate : 317 kb/s<br>
Maximum bit rate : 428 kb/s<br>
Channel(s) : 2 channels<br>
Channel layout : L R<br>
Sampling rate : 48.0 kHz<br>
Frame rate : 46.875 FPS (1024 SPF)<br>
Compression mode : Lossy<br>
Stream size : 14.0 MiB (1%)<br>
Source stream size : 14.0 MiB (1%)<br>
Language : English<br>
Encoded date : UTC 2023-09-19 20:18:13<br>
Tagged date : UTC 2023-09-19 20:18:13</div>
</div></div><br>
<div style="text-align: center"><br>
<span style="color: rgb(77, 166, 255)">Download:</span><br>
<div class="bbCodeBlock bbCodeVfcHH HiddenContent">
<div class="attribution type">Hidden Content:</div>
<blockquote>You must either reply or click 'Like' to see the hidden information contained here.</blockquote>
</div></div>
<div class="messageTextEndMarker">&nbsp;</div>
</blockquote>
</article>]]></description>
                <author><![CDATA[stargamer]]></author>
                </item>

                
                <item>
                <title><![CDATA[【MASTER &amp; MASTER RIP】The Weeknd, Future - Double Fantasy (Master ProRes-Rip AVC 1080p) (USUMV2301640)]]></title>
                <link><![CDATA[https://sharemania.us/threads/the-weeknd-future-double-fantasy-master-prores-rip-avc-1080p-usumv2301640.228777/]]></link>
                <description><![CDATA[<article>
<blockquote class="messageText SelectQuoteContainer ugc baseHtml">
<div style="text-align: center"><img src="https://i.imgur.com/E3jsb2p.jpg" class="bbCodeImage LbImage" alt="[​IMG]" data-url="https://i.imgur.com/E3jsb2p.jpg" style=""><br>
<br>
Encoded from: <b>The Weeknd, Future - Double Fantasy (Master ProRes 1080p) (USUMV2301640).mov</b><br>
Encoded by: <b>stargamer</b> (please give credits if you share/use this MasterRip anywhere.)<br>
<br>
Metadata:<br>
<div class="ToggleTriggerAnchor bbCodeSpoilerContainer">
<button type="button" class="button bbCodeSpoilerButton ToggleTrigger Tooltip JsOnly" data-target="> .SpoilerTarget"><span>Spoiler</span></button>
<div class="SpoilerTarget bbCodeSpoilerText">General<br>
Format : MPEG-4<br>
Format profile : Base Media / Version 2<br>
Codec ID : mp42 (mp42/mp41)<br>
File size : 991 MiB<br>
Duration : 4 min 23 s<br>
Overall bit rate mode : Variable<br>
Overall bit rate : 31.6 Mb/s<br>
Encoded date : UTC 2023-09-19 20:20:48<br>
Tagged date : UTC 2023-09-19 20:21:11<br>
TIM : 01:00:00:00<br>
TSC : 24000<br>
TSZ : 1001<br>
<br>
Video<br>
ID : 1<br>
Format : AVC<br>
Format/Info : Advanced Video Codec<br>
Format profile : High@L5.1<br>
Format settings : CABAC / 1 Ref Frames<br>
Format settings, CABAC : Yes<br>
Format settings, Reference fra : 1 frame<br>
Format settings, GOP : M=1, N=30<br>
Codec ID : avc1<br>
Codec ID/Info : Advanced Video Coding<br>
Duration : 4 min 23 s<br>
Bit rate : 31.2 Mb/s<br>
Width : 1 920 pixels<br>
Height : 1 080 pixels<br>
Display aspect ratio : 16:9<br>
Frame rate mode : Constant<br>
Frame rate : 23.976 (24000/1001) FPS<br>
Color space : YUV<br>
Chroma subsampling : 4:2:0<br>
Bit depth : 8 bits<br>
Scan type : Progressive<br>
Bits/(Pixel*Frame) : 0.628<br>
Stream size : 981 MiB (99%)<br>
Language : English<br>
Encoded date : UTC 2023-09-19 20:20:48<br>
Tagged date : UTC 2023-09-19 20:20:48<br>
Codec configuration box : avcC<br>
<br>
Audio<br>
ID : 2<br>
Format : AAC LC<br>
Format/Info : Advanced Audio Codec Low Complexity<br>
Codec ID : mp4a-40-2<br>
Duration : 4 min 23 s<br>
Source duration : 4 min 23 s<br>
Bit rate mode : Variable<br>
Bit rate : 317 kb/s<br>
Maximum bit rate : 409 kb/s<br>
Channel(s) : 2 channels<br>
Channel layout : L R<br>
Sampling rate : 48.0 kHz<br>
Frame rate : 46.875 FPS (1024 SPF)<br>
Compression mode : Lossy<br>
Stream size : 9.96 MiB (1%)<br>
Source stream size : 9.97 MiB (1%)<br>
Language : English<br>
Encoded date : UTC 2023-09-19 20:20:48<br>
Tagged date : UTC 2023-09-19 20:20:48</div>
</div><br>
<span style="color: rgb(77, 166, 255)">Download:<br>
</span>
<div class="bbCodeBlock bbCodeVfcHH HiddenContent">
<div class="attribution type">Hidden Content:</div>
<blockquote>You must either reply or click 'Like' to see the hidden information contained here.</blockquote>
</div></div>
<div class="messageTextEndMarker">&nbsp;</div>
</blockquote>
</article>]]></description>
                <author><![CDATA[stargamer]]></author>
                </item>

                
                <item>
                <title><![CDATA[【Trash Bin】SDTV - Foster the People - Rock in Rio USA 08-05-2015 Web 720p]]></title>
                <link><![CDATA[https://sharemania.us/threads/foster-the-people-rock-in-rio-usa-08-05-2015-web-720p.228779/]]></link>
                <description><![CDATA[<article>
<blockquote class="messageText SelectQuoteContainer ugc baseHtml">
Thanks<img src="styles/default/xenforo/smilies/big_smile-48.png" class="mceSmilie" alt=":)" title="Smile    :)">
<div class="messageTextEndMarker">&nbsp;</div>
</blockquote>
</article>]]></description>
                <author><![CDATA[Nero]]></author>
                </item>

                </channel></rss>